<svg xmlns="http://www.w3.org/2000/svg" viewBox="0 0 24 24"><path d="M12 2a10 10 0 0 0-3.6 19.3c-.1-1.6 0-3.4.4-4.8l1.3-5.5s-.3-.8-.3-1.9c0-1.8 1-3.1 2.3-3.1 1.1 0 1.6.8 1.6 1.8 0 1.1-.7 2.7-1.1 4.3-.3 1.3.6 2.3 1.9 2.3 2.3 0 4.1-2.4 4.1-5.9 0-3.1-2.2-5.2-5.4-5.2-3.7 0-5.8 2.7-5.8 5.6 0 1.1.4 2.3 1 2.9.1.1.1.2.1.4l-.4 1.5c-.1.5-.5.6-1 .4-1.8-.9-3-3.4-3-5.4C4.1 4.6 7.1 1 13 1c4.7 0 8.3 3.3 8.3 7.7 0 4.6-2.9 8.4-6.9 8.4-1.3 0-2.6-.7-3-1.5l-.8 3.1c-.3 1.2-1.1 2.7-1.6 3.6 1 .4 2 .6 3 .6a10 10 0 0 0 0-20Z"/></svg>
