<svg xmlns="http://www.w3.org/2000/svg" viewBox="0 0 24 24"><path fill-rule="evenodd" d="M12 2a10 10 0 1 1 0 20 10 10 0 0 1 0-20Zm5.7 6h-3c-.3-1.4-.8-2.7-1.4-3.7A8.1 8.1 0 0 1 17.7 8ZM12 4c.7.8 1.4 2.2 1.7 4h-3.4c.3-1.8 1-3.2 1.7-4ZM6.3 8a8.1 8.1 0 0 1 4.4-3.7A11.4 11.4 0 0 0 9.3 8h-3Zm-.8 2h3.6a17 17 0 0 0 0 4H5.5a8 8 0 0 1 0-4Zm.8 6h3c.3 1.4.8 2.7 1.4 3.7A8.1 8.1 0 0 1 6.3 16Zm5.7 4c-.7-.8-1.4-2.2-1.7-4h3.4c-.3 1.8-1 3.2-1.7 4Zm1.9-6h-3.8a15 15 0 0 1 0-4h3.8a15 15 0 0 1 0 4Zm-.6 5.7c.6-1 1.1-2.3 1.4-3.7h3a8.1 8.1 0 0 1-4.4 3.7ZM18.5 14h-3.6a17 17 0 0 0 0-4h3.6a8 8 0 0 1 0 4Z"/></svg>
